# xmcd
#
# Track frame offsets: 
#        150
#        18651
#        29478
#        47288
#        65556
#        78604
#        97534
#        114622
#        129472
#        142572
#        163996
#        179019
#        196091
#        216125
#
# Disc length: 2921 seconds
#
# Revision: 0
# Processed by: cddbd v1.5.2PL0 Copyright (c) Steve Scherf et al.
# Submitted via: ExactAudioCopy v0.95b3
#
DISCID=ba0b670e
DTITLE=Paul Geremia - Hard Life Rockin' Chair
DYEAR=2000
DGENRE=Blues
TTITLE0=Morning Song
TTITLE1=Don't Sell It, Don't Give It Away
TTITLE2=Come Back Baby
TTITLE3=I'll Be Goin'
TTITLE4=Long Tall Mama
TTITLE5=Bound To Lose
TTITLE6=Something Different
TTITLE7=Hard Life Rockin' Chair
TTITLE8=Early Morning Blues
TTITLE9=Jones, Oh Jones
TTITLE10=Seein' You Go
TTITLE11=Kick It In The Country
TTITLE12=Careless Love
TTITLE13=Don't Leave Me Here
EXTD=
EXTT0=
EXTT1=
EXTT2=
EXTT3=
EXTT4=
EXTT5=
EXTT6=
EXTT7=
EXTT8=
EXTT9=
EXTT10=
EXTT11=
EXTT12=
EXTT13=
PLAYORDER=
